<svg width="50" height="28" viewBox="0 0 50 28" fill="none" xmlns="http://www.w3.org/2000/svg">
<rect width="50" height="28" rx="14" fill="#D9D9D9"/>
<circle cx="14" cy="14" r="11" fill="white"/>
<path d="M12.1196 10.5699C12.1658 9.76744 12.2553 9.29371 12.4834 8.60697C12.5424 8.42914 12.6323 8.19299 12.4988 8.06147C12.3698 7.93427 12.1632 8.03426 11.9977 8.10817C11.6275 8.27355 11.3786 8.42135 10.9307 8.67613C9.82144 9.53152 8.90724 10.6461 8.41161 11.9563C8.36754 12.0728 8.32308 12.1958 8.27713 12.3278C7.97212 13.4647 7.93811 14.1329 8.08175 15.3704C8.33448 16.6538 8.61889 17.3218 9.38429 18.413C9.8578 19.0282 10.279 19.4588 10.7936 19.8157C11.9999 20.6524 13.495 21.0973 14.9587 20.9841C15.6001 20.9345 16.2213 20.7682 16.9624 20.4748C17.3396 20.3255 17.6979 20.1288 18.0222 19.8851C18.751 19.3377 19.2277 18.8229 19.8548 17.9432C19.9481 17.8123 20.0348 17.6323 19.914 17.5263C19.8616 17.4803 19.7689 17.467 19.6991 17.4676C19.624 17.4683 19.5495 17.4686 19.4331 17.4678C19.3336 17.4671 19.2342 17.4741 19.1352 17.4845C18.9395 17.5052 18.7568 17.5115 18.5525 17.5085C17.9551 17.4999 17.3589 17.4094 16.7937 17.2157C16.5463 17.1309 16.243 17.0184 15.8319 16.8579C15.3982 16.6724 15.1562 16.497 14.7247 16.1818C13.7894 15.3507 13.0669 14.304 12.5742 13.1539C12.5534 13.1054 12.5322 13.0555 12.5104 13.004C12.2176 12.2485 12.1137 11.7413 12.1196 10.5699Z" fill="#A2A2A2"/>
</svg>
