<svg width="111" height="40" viewBox="0 0 111 40" fill="none" xmlns="http://www.w3.org/2000/svg">
<path fill-rule="evenodd" clip-rule="evenodd" d="M23.3191 6.50767V13.2865L11.9307 6.50767V0L23.3191 6.50767ZM5.96536 10.0327L22.5057 20.3365L17.0826 23.5903L0 14.1V6.50767L5.96536 10.0327ZM11.9307 27.3864L0 20.3365V27.3864L11.9307 34.1653V27.3864Z" fill="black"/>
<path d="M22.5057 20.3365L17.0826 23.5903L11.9307 27.3864V34.1653L22.5057 27.3864V20.3365Z" fill="#656565"/>
<path d="M11.9307 6.50767V0L0 6.50767L5.96536 10.0327L11.9307 6.50767Z" fill="#656565"/>
<path d="M27.7699 31.0909C27.4527 31.0909 27.1638 31.0649 26.9034 31.0128C26.643 30.9654 26.4489 30.9134 26.321 30.8565L26.8324 29.1165C27.2206 29.2206 27.5663 29.2656 27.8693 29.2514C28.1723 29.2372 28.4399 29.1236 28.6719 28.9105C28.9086 28.6974 29.117 28.3494 29.2969 27.8665L29.5597 27.142L25.5682 16.0909H27.8409L30.6037 24.5568H30.7173L33.4801 16.0909H35.7599L31.2642 28.456C31.0559 29.0241 30.7907 29.5047 30.4688 29.8977C30.1468 30.2955 29.7633 30.5938 29.3182 30.7926C28.8731 30.9915 28.357 31.0909 27.7699 31.0909ZM37.7557 27V16.0909H39.794V17.8665H39.929C40.1563 17.2652 40.5279 16.7964 41.044 16.4602C41.5601 16.1193 42.178 15.9489 42.8977 15.9489C43.6269 15.9489 44.2377 16.1193 44.7301 16.4602C45.2273 16.8011 45.5942 17.2699 45.831 17.8665H45.9446C46.205 17.2841 46.6193 16.8201 47.1875 16.4744C47.7557 16.1241 48.4328 15.9489 49.2188 15.9489C50.2083 15.9489 51.0156 16.259 51.6406 16.8793C52.2704 17.4995 52.5852 18.4347 52.5852 19.6847V27H50.4616V19.8835C50.4616 19.1449 50.2604 18.6098 49.858 18.2784C49.4555 17.947 48.9749 17.7812 48.4162 17.7812C47.7249 17.7812 47.1875 17.9943 46.804 18.4205C46.4205 18.8419 46.2287 19.384 46.2287 20.0469V27H44.1122V19.7486C44.1122 19.1567 43.9276 18.6809 43.5582 18.321C43.1889 17.9612 42.7083 17.7812 42.1165 17.7812C41.714 17.7812 41.3423 17.8878 41.0014 18.1009C40.6652 18.3092 40.393 18.6004 40.1847 18.9744C39.9811 19.3485 39.8793 19.7817 39.8793 20.2741V27H37.7557ZM55.4315 27V16.0909H57.4698V17.8665H57.6048C57.832 17.2652 58.2037 16.7964 58.7198 16.4602C59.2359 16.1193 59.8538 15.9489 60.5735 15.9489C61.3027 15.9489 61.9135 16.1193 62.4059 16.4602C62.9031 16.8011 63.27 17.2699 63.5067 17.8665H63.6204C63.8808 17.2841 64.2951 16.8201 64.8633 16.4744C65.4315 16.1241 66.1085 15.9489 66.8945 15.9489C67.8841 15.9489 68.6914 16.259 69.3164 16.8793C69.9461 17.4995 70.261 18.4347 70.261 19.6847V27H68.1374V19.8835C68.1374 19.1449 67.9362 18.6098 67.5337 18.2784C67.1313 17.947 66.6507 17.7812 66.092 17.7812C65.4007 17.7812 64.8633 17.9943 64.4798 18.4205C64.0962 18.8419 63.9045 19.384 63.9045 20.0469V27H61.788V19.7486C61.788 19.1567 61.6033 18.6809 61.234 18.321C60.8647 17.9612 60.3841 17.7812 59.7923 17.7812C59.3898 17.7812 59.0181 17.8878 58.6772 18.1009C58.341 18.3092 58.0688 18.6004 57.8604 18.9744C57.6568 19.3485 57.555 19.7817 57.555 20.2741V27H55.4315ZM77.8089 27.2202C76.7341 27.2202 75.8085 26.9905 75.032 26.5312C74.2602 26.0672 73.6636 25.4162 73.2422 24.5781C72.8255 23.7353 72.6172 22.7481 72.6172 21.6165C72.6172 20.4991 72.8255 19.5142 73.2422 18.6619C73.6636 17.8097 74.2507 17.1444 75.0036 16.6662C75.7611 16.188 76.6465 15.9489 77.6598 15.9489C78.2753 15.9489 78.8719 16.0507 79.4496 16.2543C80.0272 16.4579 80.5457 16.7775 81.005 17.2131C81.4643 17.6487 81.8265 18.2145 82.0916 18.9105C82.3568 19.6018 82.4893 20.4422 82.4893 21.4318V22.1847H73.8175V20.5938H80.4084C80.4084 20.035 80.2947 19.5402 80.0675 19.1094C79.8402 18.6738 79.5206 18.3305 79.1087 18.0795C78.7015 17.8286 78.2232 17.7031 77.674 17.7031C77.0774 17.7031 76.5566 17.8499 76.1115 18.1435C75.6712 18.4323 75.3303 18.8111 75.0888 19.2798C74.852 19.7438 74.7337 20.2481 74.7337 20.7926V22.0355C74.7337 22.7647 74.8615 23.3849 75.1172 23.8963C75.3776 24.4077 75.7398 24.7983 76.2038 25.0682C76.6679 25.3333 77.21 25.4659 77.8303 25.4659C78.2327 25.4659 78.5997 25.4091 78.9311 25.2955C79.2625 25.1771 79.549 25.0019 79.7905 24.7699C80.032 24.5379 80.2166 24.2514 80.3445 23.9105L82.3544 24.2727C82.1934 24.8646 81.9046 25.383 81.4879 25.8281C81.076 26.2685 80.5575 26.6117 79.9325 26.858C79.3123 27.0994 78.6044 27.2202 77.8089 27.2202ZM89.9379 16.0909V17.7955H83.979V16.0909H89.9379ZM85.5771 13.4773H87.7006V23.7969C87.7006 24.2088 87.7622 24.5189 87.8853 24.7273C88.0084 24.9309 88.167 25.0705 88.3612 25.1463C88.56 25.2173 88.7754 25.2528 89.0075 25.2528C89.1779 25.2528 89.3271 25.241 89.4549 25.2173C89.5827 25.1937 89.6822 25.1747 89.7532 25.1605L90.1367 26.9148C90.0136 26.9621 89.8384 27.0095 89.6112 27.0568C89.3839 27.1089 89.0998 27.1373 88.7589 27.142C88.2002 27.1515 87.6793 27.0521 87.1964 26.8438C86.7134 26.6354 86.3228 26.3134 86.0245 25.8778C85.7262 25.4422 85.5771 24.8954 85.5771 24.2372V13.4773ZM92.2869 27V16.0909H94.3395V17.8239H94.4531C94.652 17.2367 95.0024 16.7751 95.5043 16.4389C96.0109 16.098 96.5838 15.9276 97.223 15.9276C97.3556 15.9276 97.5118 15.9323 97.6918 15.9418C97.8764 15.9512 98.0208 15.9631 98.125 15.9773V18.0085C98.0398 17.9848 97.8883 17.9588 97.6705 17.9304C97.4527 17.8973 97.2348 17.8807 97.017 17.8807C96.5152 17.8807 96.0677 17.9872 95.6747 18.2003C95.2865 18.4086 94.9787 18.6998 94.7514 19.0739C94.5241 19.4432 94.4105 19.8646 94.4105 20.3381V27H92.2869ZM101.637 31.0909C101.32 31.0909 101.031 31.0649 100.771 31.0128C100.51 30.9654 100.316 30.9134 100.188 30.8565L100.7 29.1165C101.088 29.2206 101.433 29.2656 101.737 29.2514C102.04 29.2372 102.307 29.1236 102.539 28.9105C102.776 28.6974 102.984 28.3494 103.164 27.8665L103.427 27.142L99.4354 16.0909H101.708L104.471 24.5568H104.585L107.347 16.0909H109.627L105.131 28.456C104.923 29.0241 104.658 29.5047 104.336 29.8977C104.014 30.2955 103.63 30.5938 103.185 30.7926C102.74 30.9915 102.224 31.0909 101.637 31.0909Z" fill="black"/>
<path d="M68.0866 32.7344V37H66.9972V29.9091H68.0497V31.017H68.142C68.3082 30.657 68.5606 30.3677 68.8991 30.1491C69.2377 29.9276 69.6747 29.8168 70.2102 29.8168C70.6903 29.8168 71.1104 29.9152 71.4705 30.1122C71.8306 30.3061 72.1107 30.6016 72.3107 30.9986C72.5108 31.3925 72.6108 31.8911 72.6108 32.4943V37H71.5213V32.5682C71.5213 32.0111 71.3767 31.5772 71.0874 31.2663C70.7981 30.9524 70.401 30.7955 69.8963 30.7955C69.5485 30.7955 69.2377 30.8709 68.9638 31.0217C68.6929 31.1725 68.479 31.3925 68.3221 31.6818C68.1651 31.9711 68.0866 32.322 68.0866 32.7344ZM77.5747 37.1477C76.8914 37.1477 76.3021 36.9969 75.8066 36.6953C75.3141 36.3906 74.934 35.9659 74.6663 35.4212C74.4016 34.8733 74.2693 34.2363 74.2693 33.5099C74.2693 32.7836 74.4016 32.1435 74.6663 31.5895C74.934 31.0324 75.3064 30.5985 75.7835 30.2876C76.2636 29.9737 76.8237 29.8168 77.4639 29.8168C77.8332 29.8168 78.1979 29.8783 78.558 30.0014C78.9181 30.1245 79.2458 30.3246 79.5413 30.6016C79.8367 30.8755 80.0722 31.2386 80.2476 31.6911C80.423 32.1435 80.5107 32.7005 80.5107 33.3622V33.8239H75.0448V32.8821H79.4028C79.4028 32.482 79.3228 32.125 79.1627 31.8111C79.0058 31.4972 78.7811 31.2494 78.4887 31.0678C78.1994 30.8862 77.8578 30.7955 77.4639 30.7955C77.0299 30.7955 76.6544 30.9032 76.3374 31.1186C76.0235 31.331 75.7819 31.608 75.6127 31.9496C75.4434 32.2912 75.3588 32.6574 75.3588 33.0483V33.6761C75.3588 34.2116 75.4511 34.6656 75.6357 35.038C75.8235 35.4073 76.0835 35.6889 76.4159 35.8828C76.7483 36.0736 77.1346 36.169 77.5747 36.169C77.8609 36.169 78.1194 36.129 78.3502 36.049C78.5841 35.9659 78.7857 35.8428 78.955 35.6797C79.1243 35.5135 79.2551 35.3073 79.3474 35.0611L80.3999 35.3565C80.2892 35.7135 80.103 36.0275 79.8414 36.2983C79.5798 36.5661 79.2566 36.7753 78.8719 36.9261C78.4872 37.0739 78.0548 37.1477 77.5747 37.1477ZM83.7746 37L81.6141 29.9091H82.759L84.2916 35.3381H84.3655L85.8797 29.9091H87.0431L88.5388 35.3196H88.6127L90.1453 29.9091H91.2902L89.1297 37H88.0587L86.5075 31.5526H86.3968L84.8456 37H83.7746ZM97.7533 31.4972L96.7746 31.7741C96.713 31.611 96.6222 31.4525 96.5022 31.2987C96.3853 31.1417 96.2252 31.0124 96.0221 30.9109C95.819 30.8093 95.5589 30.7585 95.2419 30.7585C94.808 30.7585 94.4463 30.8585 94.157 31.0586C93.8708 31.2556 93.7277 31.5064 93.7277 31.8111C93.7277 32.0819 93.8262 32.2958 94.0232 32.4528C94.2201 32.6097 94.5279 32.7405 94.9465 32.8452L95.999 33.1037C96.633 33.2576 97.1054 33.493 97.4163 33.81C97.7271 34.1239 97.8825 34.5286 97.8825 35.0241C97.8825 35.4304 97.7656 35.7936 97.5317 36.1136C97.3009 36.4337 96.9777 36.6861 96.5622 36.8707C96.1468 37.0554 95.6636 37.1477 95.1127 37.1477C94.3894 37.1477 93.7908 36.9908 93.3169 36.6768C92.8429 36.3629 92.5428 35.9044 92.4166 35.3011L93.4507 35.0426C93.5492 35.4242 93.7354 35.7105 94.0093 35.9013C94.2863 36.0921 94.6479 36.1875 95.0942 36.1875C95.602 36.1875 96.0052 36.0798 96.3037 35.8643C96.6053 35.6458 96.7561 35.3842 96.7561 35.0795C96.7561 34.8333 96.67 34.6271 96.4976 34.4609C96.3253 34.2917 96.0606 34.1655 95.7036 34.0824L94.5218 33.8054C93.8724 33.6515 93.3953 33.413 93.0906 33.0898C92.789 32.7636 92.6382 32.3558 92.6382 31.8665C92.6382 31.4664 92.7506 31.1125 92.9752 30.8047C93.203 30.4969 93.5123 30.2553 93.9031 30.0799C94.2971 29.9045 94.7433 29.8168 95.2419 29.8168C95.9436 29.8168 96.4945 29.9706 96.8946 30.2784C97.2978 30.5862 97.584 30.9924 97.7533 31.4972Z" fill="black"/>
</svg>
